<mxfile host="app.diagrams.net" agent="Mozilla/5.0 (Windows NT 10.0; Win64; x64) AppleWebKit/537.36 (KHTML, like Gecko) Chrome/131.0.0.0 Safari/537.36 Edg/131.0.0.0" version="26.0.6">
  <diagram name="Seite-1" id="HE52e1lUJuYu7HvRPa-Q">
    <mxGraphModel dx="1426" dy="789" grid="1" gridSize="10" guides="1" tooltips="1" connect="1" arrows="1" fold="1" page="1" pageScale="1" pageWidth="827" pageHeight="1169" math="0" shadow="0">
      <root>
        <mxCell id="0" />
        <mxCell id="1" parent="0" />
        <mxCell id="enziCVOEIyrX2cja8Oq1-18" style="edgeStyle=orthogonalEdgeStyle;rounded=0;orthogonalLoop=1;jettySize=auto;html=1;" edge="1" parent="1" source="enziCVOEIyrX2cja8Oq1-1" target="enziCVOEIyrX2cja8Oq1-17">
          <mxGeometry relative="1" as="geometry">
            <Array as="points">
              <mxPoint x="660" y="520" />
              <mxPoint x="660" y="520" />
            </Array>
          </mxGeometry>
        </mxCell>
        <mxCell id="enziCVOEIyrX2cja8Oq1-1" value="WishOrder" style="swimlane;whiteSpace=wrap;html=1;" vertex="1" parent="1">
          <mxGeometry x="560" y="310" width="200" height="120" as="geometry" />
        </mxCell>
        <mxCell id="enziCVOEIyrX2cja8Oq1-3" value="- String Name" style="text;html=1;align=left;verticalAlign=middle;resizable=0;points=[];autosize=1;strokeColor=none;fillColor=none;" vertex="1" parent="enziCVOEIyrX2cja8Oq1-1">
          <mxGeometry y="30" width="100" height="30" as="geometry" />
        </mxCell>
        <mxCell id="enziCVOEIyrX2cja8Oq1-4" value="- String Geschenkwunsch" style="text;html=1;align=left;verticalAlign=middle;resizable=0;points=[];autosize=1;strokeColor=none;fillColor=none;" vertex="1" parent="enziCVOEIyrX2cja8Oq1-1">
          <mxGeometry y="60" width="160" height="30" as="geometry" />
        </mxCell>
        <mxCell id="enziCVOEIyrX2cja8Oq1-15" value="- int Status" style="text;html=1;align=left;verticalAlign=middle;resizable=0;points=[];autosize=1;strokeColor=none;fillColor=none;" vertex="1" parent="enziCVOEIyrX2cja8Oq1-1">
          <mxGeometry y="90" width="80" height="30" as="geometry" />
        </mxCell>
        <mxCell id="enziCVOEIyrX2cja8Oq1-12" style="edgeStyle=orthogonalEdgeStyle;rounded=0;orthogonalLoop=1;jettySize=auto;html=1;" edge="1" parent="1" source="enziCVOEIyrX2cja8Oq1-9" target="enziCVOEIyrX2cja8Oq1-11">
          <mxGeometry relative="1" as="geometry" />
        </mxCell>
        <mxCell id="enziCVOEIyrX2cja8Oq1-9" value="Wish in raw data" style="rounded=0;whiteSpace=wrap;html=1;" vertex="1" parent="1">
          <mxGeometry x="80" y="130" width="120" height="60" as="geometry" />
        </mxCell>
        <mxCell id="enziCVOEIyrX2cja8Oq1-14" style="edgeStyle=orthogonalEdgeStyle;rounded=0;orthogonalLoop=1;jettySize=auto;html=1;entryX=0;entryY=0.5;entryDx=0;entryDy=0;" edge="1" parent="1" source="enziCVOEIyrX2cja8Oq1-11" target="enziCVOEIyrX2cja8Oq1-13">
          <mxGeometry relative="1" as="geometry" />
        </mxCell>
        <mxCell id="enziCVOEIyrX2cja8Oq1-11" value="Magic Kafka Streams Transformation" style="rounded=1;whiteSpace=wrap;html=1;" vertex="1" parent="1">
          <mxGeometry x="290" y="85" width="190" height="150" as="geometry" />
        </mxCell>
        <mxCell id="enziCVOEIyrX2cja8Oq1-16" style="edgeStyle=orthogonalEdgeStyle;rounded=0;orthogonalLoop=1;jettySize=auto;html=1;" edge="1" parent="1" source="enziCVOEIyrX2cja8Oq1-13" target="enziCVOEIyrX2cja8Oq1-1">
          <mxGeometry relative="1" as="geometry" />
        </mxCell>
        <mxCell id="enziCVOEIyrX2cja8Oq1-13" value="Wish in structured data (Json, SQL)" style="rounded=0;whiteSpace=wrap;html=1;" vertex="1" parent="1">
          <mxGeometry x="600" y="130" width="120" height="60" as="geometry" />
        </mxCell>
        <mxCell id="enziCVOEIyrX2cja8Oq1-17" value="WishDatabank" style="shape=cylinder3;whiteSpace=wrap;html=1;boundedLbl=1;backgroundOutline=1;size=15;" vertex="1" parent="1">
          <mxGeometry x="610" y="540" width="100" height="140" as="geometry" />
        </mxCell>
      </root>
    </mxGraphModel>
  </diagram>
</mxfile>
